:SAMPLES-PER-SECOND 30
:FULLY-SPECIFIED
:DEGREES
670
root  67.7944 40.0957 -1.75298 -113.61 -84.7678 112.166
RightUpLeg  -0.996119 -14.293 -19.8412
RightLeg  2.03847 -3.35744 1.64732
RightFoot  6.41637 -1.38932 9.15819
RightToes  -1.16417e-010 0 -3.6325e-017
Spine  5.90191 -0.579503 -2.24205
Spine1  9.98096 0.422179 -4.31972
HEad  -13.0444 9.59015 -1.98149
LeftShoulder1  10.7385 -15.1028 -50.3864
LeftArm  -10.6182 -11.3823 -19.9307
LeftForeArm  19.8441 -17.7255 -4.50872
LeftHand  -0.244104 0.0205437 5.32207
RightShoulder  6.89178 11.4997 39.805
RightArm  -5.66703 -1.42406 33.0662
RightForeArm  -17.5647 43.2734 11.6127
RightHand  -4.43766 11.1214 -30.7831
LeftUpLeg  -0.0474123 4.32413 -2.07291
LeftLeg  3.39751 23.973 -4.68183
LeftFoot  -1.57341 -0.143837 1.79564
LeftToes  -2.09216e-011 1.96776e-011 -5.83545e-012
671
root  67.8986 40.0807 -1.68823 -117.55 -84.4621 115.78
RightUpLeg  -1.05564 -14.3175 -20.0037
RightLeg  2.11614 -2.83086 1.52756
RightFoot  6.53642 -1.40922 9.22697
RightToes  -1.16417e-010 0 -3.6325e-017
Spine  6.32248 -0.538848 -2.50959
Spine1  8.90592 0.31287 -3.96019
HEad  -12.9816 9.90916 -2.02931
LeftShoulder1  10.7293 -15.1888 -50.1138
LeftArm  -10.9472 -16.3911 -20.3727
LeftForeArm  20.8529 -23.7227 -3.97048
LeftHand  -0.244104 0.0205437 5.32207
RightShoulder  6.84785 11.5927 39.2592
RightArm  -5.88825 2.17914 32.7655
RightForeArm  -12.5682 50.1677 14.4049
RightHand  -3.97096 9.8244 -29.9527
LeftUpLeg  0.157543 4.30509 -2.27258
LeftLeg  3.38959 24.4811 -4.73093
LeftFoot  -1.55444 -0.159728 1.97881
LeftToes  -2.09216e-011 1.96776e-011 -5.83545e-012
672
root  67.9977 40.0721 -1.65016 -123.028 -84.1553 121.07
RightUpLeg  -1.20782 -14.2433 -19.9382
RightLeg  1.99166 -2.33043 1.4506
RightFoot  6.73221 -1.42565 9.23708
RightToes  -1.16417e-010 0 -3.6325e-017
Spine  6.70869 -0.496493 -2.64787
Spine1  7.87758 0.198677 -3.52652
HEad  -13.2557 10.4138 -2.26734
LeftShoulder1  10.6826 -15.3152 -49.5629
LeftArm  -13.6088 -20.5124 -20.7982
LeftForeArm  24.8392 -29.8135 -5.09822
LeftHand  -0.244104 0.0205437 5.32207
RightShoulder  6.76675 11.6866 38.4781
RightArm  -6.22097 6.01981 32.7548
RightForeArm  -7.90749 56.7327 18.0879
RightHand  -3.71765 8.87762 -29.8996
LeftUpLeg  0.268779 4.3941 -2.27421
LeftLeg  3.31864 25.0069 -4.83232
LeftFoot  -1.53766 -0.169138 2.08939
LeftToes  -2.09216e-011 1.96776e-011 -5.83545e-012
673
root  68.0955 40.069 -1.64385 -128.403 -83.8478 126.532
RightUpLeg  -1.55585 -14.1773 -19.7192
RightLeg  1.70463 -1.88878 1.50378
RightFoot  6.97598 -1.43599 9.1867
RightToes  -1.16417e-010 0 -3.6325e-017
Spine  6.6577 -0.474445 -2.56184
Spine1  7.27336 0.15511 -3.31181
HEad  -13.871 11.0719 -2.41881
LeftShoulder1  10.5716 -15.4769 -48.627
LeftArm  -15.2848 -23.8781 -21.3978
LeftForeArm  27.1995 -36.224 -6.58175
LeftHand  -0.244104 0.0205437 5.32207
RightShoulder  6.54982 11.5097 37.5928
RightArm  -6.4466 10.5553 33.1226
RightForeArm  -2.59983 62.3121 22.532
RightHand  -3.6033 8.30391 -30.1733
LeftUpLeg  0.0625221 4.49459 -2.16495
LeftLeg  3.31447 25.5248 -4.86488
LeftFoot  -1.48733 -0.170542 2.0824
LeftToes  -2.09216e-011 1.96776e-011 -5.83545e-012
674
root  68.1869 40.0713 -1.67713 -133.726 -83.4771 132.073
RightUpLeg  -2.00517 -14.0935 -19.392
RightLeg  1.35747 -1.46092 1.62137
RightFoot  7.20744 -1.44173 9.11526
RightToes  -1.16417e-010 0 -3.6325e-017
Spine  6.36105 -0.470032 -2.41977
Spine1  6.8795 0.130375 -3.18654
HEad  -14.6319 12.0442 -2.51766
LeftShoulder1  10.3546 -15.5132 -47.523
LeftArm  -16.7559 -26.445 -22.0907
LeftForeArm  29.4446 -43.2253 -8.54224
LeftHand  -0.244104 0.0205437 5.32207
RightShoulder  6.29058 11.2766 36.5619
RightArm  -6.36503 15.7094 33.8384
RightForeArm  3.39065 66.7068 27.5755
RightHand  -3.35576 7.48592 -29.8919
LeftUpLeg  -0.28682 4.62791 -1.95958
LeftLeg  3.37397 26.0521 -4.84933
LeftFoot  -1.4071 -0.165996 1.99087
LeftToes  -2.09216e-011 1.96776e-011 -5.83545e-012
675
root  68.2624 40.0783 -1.74951 -138.963 -83.0217 137.411
RightUpLeg  -2.34395 -13.9449 -19.0004
RightLeg  1.06268 -1.00867 1.70816
RightFoot  7.37514 -1.43527 9.00052
RightToes  -1.16417e-010 0 -3.6325e-017
Spine  6.19646 -0.453361 -2.28379
Spine1  6.37076 0.107418 -3.03473
HEad  -15.3461 13.0752 -2.57502
LeftShoulder1  10.1084 -15.3945 -46.6674
LeftArm  -18.2135 -28.4649 -22.5968
LeftForeArm  33.0544 -50.5406 -11.0844
LeftHand  -0.244104 0.0205437 5.32207
RightShoulder  6.08198 11.227 35.3184
RightArm  -6.07935 21.0488 34.8382
RightForeArm  10.0888 70.1296 33.1874
RightHand  -2.97492 6.34489 -29.1155
LeftUpLeg  -0.462685 4.83651 -1.64677
LeftLeg  3.42656 26.5466 -4.85697
LeftFoot  -1.32863 -0.159525 1.87844
LeftToes  -2.09216e-011 1.96776e-011 -5.83545e-012
676
root  68.3227 40.0888 -1.85301 -142.888 -82.6087 141.276
RightUpLeg  -2.50793 -13.7887 -18.6317
RightLeg  0.926984 -0.592577 1.75835
RightFoot  7.43258 -1.40323 8.78206
RightToes  -1.16417e-010 0 -3.6325e-017
Spine  6.1315 -0.404008 -1.96779
Spine1  5.80445 0.177666 -3.10589
HEad  -15.8192 13.7697 -2.37714
LeftShoulder1  9.98246 -15.3544 -46.1703
LeftArm  -19.4438 -30.4713 -22.7053
LeftForeArm  37.5859 -57.0243 -14.0359
LeftHand  -0.244104 0.0205437 5.32207
RightShoulder  5.88053 11.2114 34.0093
RightArm  -5.86945 26.3367 36.0165
RightForeArm  17.5416 72.6219 38.7648
RightHand  -2.66135 5.41749 -28.3183
LeftUpLeg  -0.404119 5.04579 -1.30175
LeftLeg  3.3871 26.8936 -4.90187
LeftFoot  -1.22292 -0.152849 1.77291
LeftToes  -2.09216e-011 1.96776e-011 -5.83545e-012
677
root  68.3804 40.1017 -1.98635 -144.739 -82.4024 143.009
RightUpLeg  -2.58762 -13.6884 -18.3334
RightLeg  1.02533 -0.353154 1.80719
RightFoot  7.32106 -1.34856 8.49933
RightToes  -1.16417e-010 0 -3.6325e-017
Spine  5.94216 -0.313132 -1.42513
Spine1  5.33555 0.376202 -3.48419
HEad  -15.8509 13.9715 -1.88503
LeftShoulder1  10.0044 -15.5497 -45.7849
LeftArm  -20.3705 -32.817 -22.5402
LeftForeArm  41.1345 -61.3894 -16.7123
LeftHand  -0.244104 0.0205437 5.32207
RightShoulder  5.65451 11.1074 32.7541
RightArm  -5.88108 31.4921 37.2344
RightForeArm  24.1579 74.0452 42.6342
RightHand  -2.40327 4.74172 -27.3093
LeftUpLeg  -0.260241 5.1911 -0.984737
LeftLeg  3.26401 26.9862 -4.95696
LeftFoot  -1.05616 -0.146039 1.67643
LeftToes  -2.09216e-011 1.96776e-011 -5.83545e-012
678
root  68.4479 40.1142 -2.15764 -145.096 -82.4448 143.212
RightUpLeg  -2.64349 -13.6231 -18.0562
RightLeg  1.39265 -0.40552 1.87166
RightFoot  6.99115 -1.28982 8.27827
RightToes  -1.16417e-010 0 -3.6325e-017
Spine  5.66996 -0.197358 -0.920603
Spine1  4.92961 0.57634 -3.76715
HEad  -15.4292 13.8657 -1.42644
LeftShoulder1  10.0194 -15.7987 -45.2408
LeftArm  -21.1045 -35.5058 -22.4363
LeftForeArm  42.3583 -63.1934 -18.1463
LeftHand  -0.244104 0.0205437 5.32207
RightShoulder  5.46143 11.1191 31.4002
RightArm  -5.88901 36.3807 38.5067
RightForeArm  27.0034 74.3267 43.1295
RightHand  -2.06812 3.80489 -25.9455
LeftUpLeg  -0.163341 5.34453 -0.623674
LeftLeg  3.27707 26.7658 -4.9565
LeftFoot  -0.904489 -0.137602 1.56691
LeftToes  -2.09216e-011 1.96776e-011 -5.83545e-012
679
root  68.5275 40.1199 -2.3701 -144.753 -82.7224 142.649
RightUpLeg  -2.68246 -13.5587 -17.7298
RightLeg  2.06036 -0.754899 1.96437
RightFoot  6.43043 -1.23325 8.15831
RightToes  -1.16417e-010 0 -3.6325e-017
Spine  5.42014 -0.130654 -0.597257
Spine1  4.67687 0.651916 -3.75183
HEad  -14.9138 13.6213 -1.19521
LeftShoulder1  9.8526 -15.8402 -44.3527
LeftArm  -21.7261 -38.3766 -22.6534
LeftForeArm  41.6363 -62.959 -18.0353
LeftHand  -0.244104 0.0205437 5.32207
RightShoulder  5.31726 11.3054 29.9357
RightArm  -5.31812 40.9843 40.0842
RightForeArm  24.3451 73.3582 39.8549
RightHand  -1.79888 2.86069 -25.1848
LeftUpLeg  -0.20826 5.58385 -0.121818
LeftLeg  3.7214 26.2048 -4.7871
LeftFoot  -0.899767 -0.116763 1.33745
LeftToes  -2.09216e-011 1.96776e-011 -5.83545e-012
680
root  68.6114 40.1126 -2.6144 -143.692 -83.2511 141.33
RightUpLeg  -2.7382 -13.5103 -17.3381
RightLeg  3.06074 -1.29418 2.08789
RightFoot  5.6577 -1.16162 8.02045
RightToes  -1.16417e-010 0 -3.6325e-017
Spine  5.05834 -0.166829 -0.257682
Spine1  4.87932 0.64624 -3.79094
HEad  -14.7148 13.2814 -1.00407
LeftShoulder1  9.50255 -15.6706 -43.0895
LeftArm  -22.2205 -41.208 -23.2713
LeftForeArm  39.7865 -61.3649 -16.882
LeftHand  -0.244104 0.0205437 5.32207
RightShoulder  5.15724 11.3384 28.7512
RightArm  -3.67345 45.4126 42.2356
RightForeArm  17.3472 70.9179 33.8824
RightHand  -1.84322 2.87782 -25.7055
LeftUpLeg  -0.455066 5.86519 0.510711
LeftLeg  4.652 25.3147 -4.39597
LeftFoot  -1.0845 -0.0690192 0.841266
LeftToes  -2.09216e-011 1.96776e-011 -5.83545e-012
681
root  68.6919 40.0915 -2.87853 -141.597 -83.9766 138.955
RightUpLeg  -2.83568 -13.5458 -16.8944
RightLeg  4.36937 -1.83146 2.19826
RightFoot  4.71179 -1.05974 7.73205
RightToes  -1.16417e-010 0 -3.6325e-017
Spine  4.53447 -0.228098 0.265
Spine1  5.48191 0.700501 -4.131
HEad  -14.7282 12.9016 -0.721718
LeftShoulder1  9.14174 -15.4929 -41.7591
LeftArm  -22.4967 -43.6719 -24.1995
LeftForeArm  36.8435 -58.7923 -15.2686
LeftHand  -0.244104 0.0205437 5.32207
RightShoulder  4.98412 11.0936 28.1355
RightArm  -0.991631 49.4719 44.9666
RightForeArm  9.21272 66.9377 27.2167
RightHand  -2.03176 3.5592 -26.1869
LeftUpLeg  -0.822479 6.17785 1.20295
LeftLeg  5.85221 24.1435 -3.85868
LeftFoot  -1.40321 0.00127152 0.0819216
LeftToes  -2.09216e-011 1.96776e-011 -5.83545e-012
682
root  68.7657 40.0596 -3.15611 -138.899 -84.7109 135.897
RightUpLeg  -2.9503 -13.77 -16.4041
RightLeg  5.88616 -2.16217 2.2152
RightFoot  3.64896 -0.942837 7.34585
RightToes  -1.16417e-010 0 -3.6325e-017
Spine  4.11517 -0.0431497 0.557674
Spine1  5.97133 0.887617 -3.98311
HEad  -14.3863 12.376 -0.662726
LeftShoulder1  9.07517 -15.5158 -41.3723
LeftArm  -22.2911 -45.392 -24.9588
LeftForeArm  33.0685 -55.9595 -13.8156
LeftHand  -0.244104 0.0205437 5.32207
RightShoulder  4.83529 10.8884 27.5698
RightArm  2.18538 52.4777 48.0468
RightForeArm  2.30842 61.9394 21.6435
RightHand  -1.95663 3.49162 -25.422
LeftUpLeg  -1.13722 6.81003 1.88754
LeftLeg  7.1318 22.6145 -3.22158
LeftFoot  -1.79561 0.072449 -0.738151
LeftToes  -2.09216e-011 1.96776e-011 -5.83545e-012
683
root  68.8259 40.0182 -3.44132 -136.73 -85.2743 133.276
RightUpLeg  -3.09092 -14.173 -15.8706
RightLeg  7.51375 -2.23549 2.07961
RightFoot  2.50615 -0.846298 7.1024
RightToes  -1.16417e-010 0 -3.6325e-017
Spine  3.8724 0.60504 0.217775
Spine1  6.21994 1.24441 -2.603
HEad  -13.4131 11.3775 -1.01983
LeftShoulder1  9.50327 -15.7936 -42.8033
LeftArm  -21.3446 -46.0988 -25.1194
LeftForeArm  29.6203 -54.1722 -13.1148
LeftHand  -0.244104 0.0205437 5.32207
RightShoulder  4.69857 10.9187 26.5176
RightArm  5.21194 53.8367 50.9971
RightForeArm  -2.97783 57.081 17.9029
RightHand  -1.82109 3.12718 -24.7202
LeftUpLeg  -1.35156 7.95912 2.49547
LeftLeg  8.4665 20.7346 -2.43259
LeftFoot  -2.24058 0.129736 -1.46036
LeftToes  -2.09216e-011 1.96776e-011 -5.83545e-012
684
root  68.859 39.9649 -3.72448 -135.753 -85.65 131.832
RightUpLeg  -3.31341 -14.6688 -15.2875
RightLeg  9.23873 -2.05302 1.76799
RightFoot  1.24118 -0.785526 7.19507
RightToes  -1.16417e-010 0 -3.6325e-017
Spine  3.7375 1.07084 1.18078
Spine1  6.34812 1.90802 -3.23757
HEad  -12.0999 10.2626 -0.498022
LeftShoulder1  9.65454 -15.8315 -43.4355
LeftArm  -20.0005 -45.3339 -26.3671
LeftForeArm  27.5817 -54.1271 -13.2773
LeftHand  -0.244104 0.0205437 5.32207
RightShoulder  4.89754 11.3786 26.8576
RightArm  7.96234 53.614 53.0393
RightForeArm  -7.15026 53.3677 15.7773
RightHand  -2.17335 4.33507 -25.7614
LeftUpLeg  -1.55907 9.43983 3.00794
LeftLeg  9.90062 18.7022 -1.4929
LeftFoot  -2.7737 0.177592 -2.14884
LeftToes  -2.09216e-011 1.96776e-011 -5.83545e-012
